<?xml version="1.0" encoding="UTF-8" standalone="no"?>
<svg width="140px" height="20px" viewBox="0 0 140 20" version="1.1" xmlns="http://www.w3.org/2000/svg" xmlns:xlink="http://www.w3.org/1999/xlink" xmlns:sketch="http://www.bohemiancoding.com/sketch/ns">
    <!-- Generator: Sketch Beta 3.2.1 (9971) - http://www.bohemiancoding.com/sketch -->
    <title>exportable</title>
    <desc>Created with Sketch Beta.</desc>
    <defs></defs>
    <g id="Page-1" stroke="none" stroke-width="1" fill="none" fill-rule="evenodd" sketch:type="MSPage">
        <g id="exportable" sketch:type="MSLayerGroup" transform="translate(-3.000000, -3.000000)">
            <rect id="Rectangle-1" sketch:type="MSShapeGroup" x="0" y="0" width="379" height="279"></rect>
            <g id="sprite" transform="translate(3.000000, 3.000000)" fill="#FFFFFF" sketch:type="MSShapeGroup">
                <path d="M128.216587,15.5688607 C128.216587,14.7321955 129.053252,13.8955303 129.889917,13.8955303 C130.726582,13.8955303 132.161463,15.3304111 133.236578,16.4055259 C134.073243,17.2421911 134.073243,17.2421911 134.909908,17.2421911 L137.419904,17.2421911 C137.419904,17.2421911 139.093234,17.1786046 139.093234,15.5688607 C139.093234,15.045945 138.520118,14.1590799 136.583239,12.2221999 C134.909908,10.5488695 134.05149,11.4131447 136.583239,8.03887392 C138.125213,5.98402419 139.247181,4.12244412 139.054748,3.58530507 C138.870681,3.0724293 134.581935,2.25584406 134.073243,3.01888273 C132.399913,5.52887832 132.092856,6.14382725 131.563247,7.20220872 C130.726582,8.87553912 130.643752,9.71220432 129.889917,9.71220432 C129.129388,9.71220432 129.053252,8.08823717 129.053252,7.20220872 C129.053252,4.43619357 129.454014,2.48007034 128.216587,2.18221753 L125.706591,2.18221753 C124.35956,2.18221753 123.196595,3.01888273 123.196595,3.01888273 C123.196595,3.01888273 122.158294,3.82877464 122.35993,3.85554792 C122.609256,3.88901453 124.033261,3.50916853 124.033261,4.69221312 L124.033261,6.36554352 C124.033261,6.36554352 124.040791,9.71220432 123.196595,9.71220432 C122.35993,9.71220432 120.6866,6.36554352 119.013269,3.85554792 C118.356487,2.87079298 118.176604,3.01888273 117.339939,3.01888273 C116.443034,3.01888273 115.667445,3.05402266 114.829943,3.05402266 C113.993278,3.05402266 113.886185,3.5869784 113.993278,3.85554792 C115.666609,8.03887392 116.868896,10.6660027 120.048224,13.9758502 C122.964002,17.0121082 124.911759,17.1735846 126.543256,17.2421911 C126.961589,17.2597611 126.543256,17.2421911 127.379921,17.2421911 C128.216587,17.2421911 128.216587,16.0365566 128.216587,15.5688607 Z" id="Shape"></path>
                <path d="M10.2158711,3.34671944 L7.29760535,3.34671944 C6.95271754,3.34671944 6.56737489,3.82176667 6.56737489,4.45723056 L6.56737489,6.66328056 L10.2158711,6.66328056 L10.2158711,9.80744722 L6.56737489,9.80744722 L6.56737489,19.2497861 L3.12299179,19.2497861 L3.12299179,9.80744722 L0,9.80744722 L0,6.66328056 L3.12299179,6.66328056 L3.12299179,4.8125 C3.12299179,2.15878056 4.88236911,-3.55271368e-15 7.29760535,-3.55271368e-15 L10.2158711,-3.55271368e-15 L10.2158711,3.34671944 L10.2158711,3.34671944 Z" id="Shape"></path>
                <path d="M73.5258979,3.03431333 C74.4637223,2.43474 75.1838117,1.48533 75.5230452,0.3542 C74.6453686,0.909113333 73.6733803,1.31233667 72.6393195,1.52973333 C71.8109641,0.588023333 70.6303832,0 69.324695,0 C66.8167726,0 64.7835367,2.16883333 64.7835367,4.84432667 C64.7835367,5.22393667 64.8234748,5.59379333 64.9009452,5.94825 C61.1270321,5.74651 57.7799278,3.81766 55.5409864,0.886526667 C55.1500258,1.60211333 54.9257948,2.43422667 54.9257948,3.32203667 C54.9257948,5.00269 55.7274446,6.48519667 56.9457982,7.35427 C56.2018904,7.32911667 55.5012889,7.11172 54.8889844,6.74879333 C54.8885032,6.76881333 54.8885032,6.78883333 54.8885032,6.80936667 C54.8885032,9.15684 56.4542705,11.1146933 58.531294,11.5597533 C58.1506788,11.6706333 57.7493727,11.7299233 57.3348342,11.7299233 C57.0425159,11.7299233 56.7583777,11.6996367 56.4804949,11.6429133 C57.0583949,13.5674 58.7360371,14.9682867 60.722839,15.0070433 C59.1683794,16.3065467 57.2106891,17.0811667 55.0831414,17.0811667 C54.7167211,17.0811667 54.3553532,17.0580667 54,17.0126367 C56.0094174,18.3876 58.3958412,19.18994 60.9612648,19.18994 C69.3138684,19.18994 73.8817323,11.8074367 73.8817323,5.4054 C73.8817323,5.19596 73.8774016,4.98677667 73.8684997,4.77862 C74.7555594,4.0964 75.5254511,3.24324 76.1343874,2.27124333 C75.3195051,2.65675667 74.4447156,2.91701667 73.5258979,3.03431333 Z" id="Shape"></path>
            </g>
        </g>
    </g>
</svg>